<svg width="180" height="45" viewBox="0 0 180 45" fill="none" xmlns="http://www.w3.org/2000/svg">
<path d="M64.4668 30.6953H55.5589V12.0444H64.1327C67.7794 12.0444 69.9786 13.5476 69.9786 16.6932C69.9786 18.8645 68.7537 20.3399 66.3597 20.7018V20.9245C69.1991 21.2863 70.6467 23.1236 70.6467 25.5733C70.6467 28.7467 68.3918 30.6953 64.4668 30.6953ZM58.5653 14.7446V19.7831H63.8544C66.1092 19.7831 67 19.1707 67 17.2778C67 15.357 66.1927 14.7446 63.9379 14.7446H58.5653ZM58.5653 22.2885V27.9951H64.3833C66.6381 27.9951 67.6124 27.3548 67.6124 25.1557C67.6124 22.9287 66.6381 22.2885 64.3833 22.2885H58.5653ZM78.9169 30.9737C74.3516 30.9737 72.2081 28.0786 72.2081 23.7638C72.2081 19.4769 74.7692 16.5818 78.8891 16.5818C82.6193 16.5818 85.236 18.8088 85.236 22.5947C85.236 23.3185 85.1524 24.0701 85.0689 24.4876H75.0197C75.1311 27.0208 76.0497 28.3013 78.9447 28.3013C81.2552 28.3013 82.146 27.5219 82.146 26.2692V26.0465H85.1246V26.297C85.1246 29.1364 82.6471 30.9737 78.9169 30.9737ZM78.8334 19.115C76.2167 19.115 75.2146 20.3399 75.0475 22.4833H82.3687C82.4801 20.1172 81.1996 19.115 78.8334 19.115ZM90.6686 30.6953H87.6621V12.0444H90.6686V19.1707H90.7799C91.4202 17.918 92.8955 16.5818 95.4009 16.5818C99.0197 16.5818 100.551 18.948 100.551 21.9823V30.6953H97.5444V22.6782C97.5444 20.2007 96.7649 19.1707 94.2317 19.1707C91.7821 19.1707 90.6686 20.1172 90.6686 22.7339V30.6953ZM109.803 30.9737C105.544 30.9737 102.9 28.0786 102.9 23.7638C102.9 19.4769 105.544 16.5818 109.803 16.5818C114.035 16.5818 116.596 19.4769 116.596 23.7638C116.596 28.0786 114.035 30.9737 109.803 30.9737ZM109.803 28.3013C112.698 28.3013 113.701 26.8816 113.701 23.7638C113.701 20.6739 112.698 19.2542 109.803 19.2542C106.88 19.2542 105.85 20.6739 105.85 23.7638C105.85 26.8816 106.88 28.3013 109.803 28.3013ZM125.326 30.9737C121.067 30.9737 118.422 28.0786 118.422 23.7638C118.422 19.4769 121.067 16.5818 125.326 16.5818C129.557 16.5818 132.118 19.4769 132.118 23.7638C132.118 28.0786 129.557 30.9737 125.326 30.9737ZM125.326 28.3013C128.221 28.3013 129.223 26.8816 129.223 23.7638C129.223 20.6739 128.221 19.2542 125.326 19.2542C122.403 19.2542 121.373 20.6739 121.373 23.7638C121.373 26.8816 122.403 28.3013 125.326 28.3013ZM137.399 30.6953H134.393V12.0444H137.399V22.3441H140.127L143.83 16.8602H147.365L142.549 23.402L147.281 30.6953H143.774L140.155 25.0444H137.399V30.6953ZM154.327 30.9737C149.762 30.9737 147.619 28.0786 147.619 23.7638C147.619 19.4769 150.18 16.5818 154.3 16.5818C158.03 16.5818 160.647 18.8088 160.647 22.5947C160.647 23.3185 160.563 24.0701 160.479 24.4876H150.43C150.542 27.0208 151.46 28.3013 154.355 28.3013C156.666 28.3013 157.557 27.5219 157.557 26.2692V26.0465H160.535V26.297C160.535 29.1364 158.058 30.9737 154.327 30.9737ZM154.244 19.115C151.627 19.115 150.625 20.3399 150.458 22.4833H157.779C157.891 20.1172 156.61 19.115 154.244 19.115ZM168.721 30.9737C164.768 30.9737 162.625 28.1621 162.625 23.7638C162.625 19.3934 164.74 16.5818 168.554 16.5818C171.004 16.5818 172.479 17.751 173.091 19.0037H173.175V12.0444H176.154V30.6953H173.398V28.4127H173.286C172.618 29.9994 171.087 30.9737 168.721 30.9737ZM165.631 23.7638C165.631 27.1878 166.717 28.4127 169.389 28.4127C171.839 28.4127 173.175 27.327 173.175 25.0165V22.539C173.175 20.2285 171.839 19.1429 169.389 19.1429C166.745 19.1429 165.631 20.3677 165.631 23.7638Z" fill="white"/>
<g filter="url(#filter0_i_5_91)">
<rect x="44.375" y="44.375" width="44.3721" height="44.3721" rx="10.4651" transform="rotate(180 44.375 44.375)" fill="url(#paint0_radial_5_91)"/>
</g>
<rect x="0.837209" y="0.837209" width="42.6977" height="42.6977" rx="9.62791" stroke="url(#paint1_linear_5_91)" stroke-width="1.67442"/>
<path d="M25.5129 22.8287V28.0283L13.711 28.1246L13.6139 27.9802V27.7395V21.6251L31.8267 18.255L35.3721 12.1406L15.848 15.7996L13.2254 21.6251H9V28.0283H13.6139L15.848 32.0243H31.8267L25.5129 22.8287Z" fill="white"/>
<path d="M25.5129 22.8287V28.0283L13.711 28.1246L13.6139 27.9802V27.7395V21.6251L31.8267 18.255L35.3721 12.1406L15.848 15.7996L13.2254 21.6251H9V28.0283H13.6139L15.848 32.0243H31.8267L25.5129 22.8287Z" fill="white"/>
<defs>
<filter id="filter0_i_5_91" x="-5.35814" y="0" width="49.7331" height="46.2587" filterUnits="userSpaceOnUse" color-interpolation-filters="sRGB">
<feFlood flood-opacity="0" result="BackgroundImageFix"/>
<feBlend mode="normal" in="SourceGraphic" in2="BackgroundImageFix" result="shape"/>
<feColorMatrix in="SourceAlpha" type="matrix" values="0 0 0 0 0 0 0 0 0 0 0 0 0 0 0 0 0 0 127 0" result="hardAlpha"/>
<feOffset dx="-6.06977" dy="1.88372"/>
<feGaussianBlur stdDeviation="2.67907"/>
<feComposite in2="hardAlpha" operator="arithmetic" k2="-1" k3="1"/>
<feColorMatrix type="matrix" values="0 0 0 0 0 0 0 0 0 0 0 0 0 0 0 0 0 0 0.25 0"/>
<feBlend mode="normal" in2="shape" result="effect1_innerShadow_5_91"/>
</filter>
<radialGradient id="paint0_radial_5_91" cx="0" cy="0" r="1" gradientUnits="userSpaceOnUse" gradientTransform="translate(81.1621 56.1954) rotate(-69.5209) scale(52.1216 53.0744)">
<stop offset="0.0336539" stop-color="#1A9DFF"/>
<stop offset="0.456731" stop-color="#1A5FFA"/>
<stop offset="1"/>
</radialGradient>
<linearGradient id="paint1_linear_5_91" x1="43.2209" y1="-2.16975e-06" x2="8.16279" y2="44.3721" gradientUnits="userSpaceOnUse">
<stop stop-color="#1B8FFE"/>
<stop offset="1" stop-color="#081E4E"/>
</linearGradient>
</defs>
</svg>
